<?xml version="1.0" standalone="no"?>
<!DOCTYPE svg PUBLIC "-//W3C//DTD SVG 20010904//EN"
 "http://www.w3.org/TR/2001/REC-SVG-20010904/DTD/svg10.dtd">
<svg version="1.0" xmlns="http://www.w3.org/2000/svg"
 width="1458.000000pt" height="1458.000000pt" viewBox="0 0 1458.000000 1458.000000"
 preserveAspectRatio="xMidYMid meet">
<metadata>
Created by potrace 1.14, written by Peter Selinger 2001-2017
</metadata>
<g transform="translate(0.000000,1458.000000) scale(0.100000,-0.100000)"
fill="#000000" stroke="none">
<path d="M7049 12558 c-3 -102 0 -420 4 -425 8 -7 1916 -7 1924 1 3 3 6 104 6
223 l1 218 -967 3 -967 2 -1 -22z"/>
<path d="M6089 12080 l-24 -5 0 -215 0 -215 471 -3 472 -2 -2 222 -1 221 -446
1 c-245 1 -456 -1 -470 -4z"/>
<path d="M9023 12076 c-3 -4 -6 -103 -6 -220 l0 -211 472 -1 471 -1 0 219 0
218 -27 1 c-225 5 -906 2 -910 -5z"/>
<path d="M5569 11533 c-1 -81 -1 -336 0 -367 l1 -23 227 1 228 1 0 223 0 222
-30 1 c-16 0 -119 1 -227 2 l-198 2 -1 -62z"/>
<path d="M10006 11592 c-2 -4 -3 -106 -2 -227 l1 -220 226 -1 226 -2 -1 227
-1 226 -223 2 c-122 0 -224 -2 -226 -5z"/>
<path d="M5087 11093 c-3 -5 -4 -216 -4 -469 l0 -462 224 1 223 1 1 55 c0 84
0 758 0 824 l-1 57 -219 0 c-121 0 -222 -3 -224 -7z"/>
<path d="M10499 11093 c-1 -10 -1 -854 0 -909 l1 -41 220 0 220 0 1 26 c1 32
1 865 0 904 l-1 27 -220 0 c-121 0 -220 -3 -221 -7z"/>
<path d="M4565 9116 l0 -991 -227 -3 -228 -2 0 -225 0 -225 -270 0 -270 0 0
-244 0 -243 -242 0 -243 1 -3 -247 -2 -247 -58 -1 c-31 0 -141 0 -244 0 -169
0 -188 -2 -189 -17 0 -9 -1 -117 -1 -239 l-1 -223 -36 -1 c-150 -3 -443 0
-448 5 -3 3 -6 113 -7 243 l-1 238 -245 0 -245 0 -2 480 c-1 264 -2 485 -2
491 -1 8 -71 11 -244 11 l-242 0 -3 486 -2 487 -244 0 -243 0 1 -1477 1 -1478
240 -1 c132 -1 242 -2 245 -3 3 0 5 -110 5 -243 l0 -243 240 -1 c132 -1 242
-2 245 -3 3 0 5 -110 5 -243 l0 -243 245 -5 245 -5 0 -240 0 -240 248 -3 247
-2 1 -28 c0 -15 1 -127 1 -248 l0 -221 239 0 c131 0 242 -3 246 -6 3 -4 7
-444 7 -979 l1 -973 487 -1 c443 -2 487 0 490 15 2 9 4 120 3 246 l0 230 -237
3 c-131 1 -238 6 -239 10 -4 61 1 465 6 470 4 4 110 8 236 8 126 1 232 2 237
3 4 0 7 111 7 246 l0 245 245 0 245 0 0 238 0 237 243 3 242 2 1 -32 c0 -18 0
-126 0 -240 0 -155 3 -208 12 -209 7 -1 113 -3 237 -4 124 -1 231 -3 238 -4 9
-1 12 -155 12 -735 l0 -733 490 -1 490 0 0 248 0 247 -207 1 c-115 0 -222 1
-239 1 l-31 1 0 975 0 975 21 1 c35 1 388 1 427 0 l36 -1 0 -487 0 -488 235 0
c130 0 240 -3 244 -7 4 -4 7 -111 7 -238 -1 -166 2 -230 11 -231 71 -4 1956 0
1963 4 5 3 9 64 8 142 0 93 3 139 11 146 8 7 82 -79 260 -303 137 -172 253
-318 259 -324 5 -6 37 -47 70 -90 33 -43 74 -94 90 -113 17 -20 46 -56 65 -81
19 -25 40 -52 47 -60 34 -42 317 -398 350 -441 41 -54 45 -56 70 -34 10 8 79
62 153 120 74 58 151 118 170 134 l34 29 60 -77 c33 -42 63 -78 66 -81 3 -3
44 -52 90 -110 46 -58 86 -108 89 -112 5 -6 282 205 441 335 8 6 47 37 85 67
38 30 77 60 85 67 36 29 388 307 420 331 19 15 125 98 235 185 110 87 214 169
230 181 17 13 109 86 205 162 96 76 272 214 390 307 118 93 224 176 235 185
11 9 115 91 230 182 116 91 217 170 225 177 8 7 71 56 140 110 69 54 138 110
154 124 l29 27 -144 183 c-79 101 -148 187 -154 191 -12 9 -27 -4 193 168 100
78 182 147 182 152 0 9 -30 50 -81 113 -15 18 -234 295 -294 370 -85 108 -611
775 -628 797 -12 15 -64 81 -116 147 l-95 121 -35 -27 c-20 -15 -103 -78 -186
-142 -82 -63 -155 -118 -161 -123 -8 -6 -43 30 -105 109 -52 65 -99 125 -106
133 -6 8 -33 41 -58 72 l-47 57 -181 -143 c-100 -78 -187 -145 -194 -149 -7
-4 -32 19 -64 60 -30 38 -56 70 -59 73 -3 3 -48 58 -99 123 -51 65 -97 117
-101 115 -4 -2 -22 -15 -41 -30 -19 -15 -103 -81 -187 -148 l-153 -120 -41 52
c-141 180 -261 328 -265 328 -5 0 -169 -127 -199 -155 -7 -5 -50 -39 -97 -75
-47 -36 -86 -69 -86 -73 -1 -5 62 -89 140 -189 77 -99 142 -185 145 -191 2 -7
-42 -48 -98 -92 -57 -44 -105 -82 -108 -85 -3 -3 -99 -80 -215 -170 -115 -91
-217 -170 -225 -177 -8 -7 -134 -106 -280 -221 l-265 -209 -3 458 -2 459 -243
-1 -242 -1 -5 -482 -5 -481 -248 0 -247 0 0 -242 0 -243 -488 0 -487 0 0 236
c0 201 -2 237 -15 243 -8 4 -111 6 -227 5 l-213 -1 0 223 c0 172 3 224 13 225
6 0 115 1 242 2 l230 2 0 965 c0 531 3 970 7 975 5 8 407 14 438 6 3 0 5 -107
5 -236 0 -153 3 -235 10 -236 9 0 489 0 508 1 4 0 7 228 7 508 l0 507 -492 0
-493 0 -2 145 c-1 80 -2 191 -2 247 l-1 103 -247 2 -248 3 0 243 0 242 -25 1
c-14 0 -124 1 -245 2 l-220 2 -2 238 c0 131 -4 241 -7 244 -3 4 -113 7 -243 7
l-238 1 -2 210 c-1 116 -2 224 -2 242 l-1 32 -255 -1 c-227 -1 -255 -3 -256
-17 0 -9 -1 -226 -1 -483 l0 -468 -244 0 -244 0 0 714 0 713 -243 0 -242 0 0
-991z m6205 -4277 c132 -168 141 -182 123 -194 -10 -7 -86 -67 -169 -132 -83
-65 -222 -174 -310 -242 -270 -211 -826 -647 -974 -764 -8 -7 -67 -53 -130
-102 -133 -104 -137 -107 -153 -120 -29 -25 -124 -95 -130 -95 -3 0 -15 15
-26 33 l-21 34 -952 1 c-524 0 -960 1 -969 1 -14 1 -16 29 -16 231 0 140 4
233 10 237 5 3 555 6 1222 6 l1213 0 0 196 c1 108 1 204 1 213 1 10 69 70 159
139 86 68 159 126 162 129 3 3 131 105 285 225 154 121 332 261 395 312 78 62
119 88 126 82 7 -5 76 -91 154 -190z m2000 -146 c41 -53 105 -135 142 -182 37
-47 68 -90 67 -96 0 -5 -27 -30 -60 -55 -33 -25 -68 -52 -77 -60 -55 -48 -224
-180 -231 -180 -5 0 -52 55 -105 123 -53 67 -102 129 -109 137 -7 9 -29 36
-49 62 -21 25 -38 49 -38 52 0 4 57 52 160 133 8 7 58 46 110 88 52 41 100 75
105 75 6 -1 44 -44 85 -97z m-3400 28 c-1 -9 -50 -56 -110 -106 -61 -49 -110
-93 -110 -97 0 -4 35 -54 78 -110 43 -57 87 -117 99 -134 l22 -31 -177 1 -177
1 0 246 0 246 187 0 c166 0 188 -2 188 -16z m-2342 -247 l2 -231 -242 1 -243
1 -2 227 c-2 206 0 227 15 230 9 2 118 3 242 3 l225 0 3 -231z"/>
<path d="M10979 10093 c-1 -23 -1 -1851 0 -1879 1 -21 3 -22 231 -22 l230 0 0
959 0 959 -230 0 c-212 0 -230 -1 -231 -17z"/>
<path d="M10471 7682 l0 -487 232 -1 c128 0 234 3 237 7 3 4 5 223 5 486 l0
478 -237 2 -237 2 0 -487z"/>
<path d="M9975 7190 c-2 -3 -3 -221 -2 -485 l0 -480 -238 -5 -237 -5 0 -200
c0 -110 1 -218 1 -240 l1 -41 235 1 235 0 1 45 c0 25 2 133 2 240 l2 195 248
3 247 2 0 83 c3 411 0 880 -5 886 -8 7 -485 9 -490 1z"/>
</g>
</svg>
